# Blender 4.2.3 LTS
# www.blender.org
mtllib BCBush.mtl
o Plane.001
v 0.383276 0.383276 -0.000000
v -0.383276 0.383276 0.000000
v 0.383276 -0.383276 -0.000000
v -0.383276 -0.383276 0.000000
v 0.243097 0.100740 -0.473874
v -0.384441 0.362743 -0.120103
v 0.384440 -0.362743 0.120103
v -0.243097 -0.100740 0.473874
v 0.169534 0.257979 0.445541
v 0.086990 0.447977 -0.292490
v -0.086990 -0.447977 0.292490
v -0.169534 -0.257979 -0.445541
v 0.433807 -0.294831 0.136703
v 0.187460 0.413268 0.296428
v -0.187460 -0.413268 -0.296428
v -0.433807 0.294831 -0.136703
v -0.125837 -0.325365 -0.414855
v 0.351776 0.265874 -0.315224
v -0.351776 -0.265874 0.315224
v 0.125836 0.325365 0.414855
v 0.204102 -0.390646 -0.315499
v 0.452575 0.290646 -0.067095
v -0.452575 -0.290646 0.067095
v -0.204102 0.390646 0.315499
v 0.238924 -0.249752 0.417541
v 0.055150 0.476074 0.253206
v -0.055150 -0.476074 -0.253206
v -0.238924 0.249752 -0.417541
v -0.538370 0.035540 0.051926
v -0.013546 0.371352 -0.394608
v 0.013546 -0.371352 0.394609
v 0.538370 -0.035540 -0.051926
v -0.374726 0.317031 0.229944
v 0.284305 0.001326 0.461487
v -0.284305 -0.001326 -0.461487
v 0.374725 -0.317031 -0.229944
vn -0.0000 -0.0000 1.0000
vn -0.5439 -0.7194 -0.4320
vn -0.9362 0.3007 0.1821
vn -0.4898 -0.3505 0.7983
vn -0.7245 0.6317 -0.2757
vn -0.4013 0.4394 -0.8037
vn 0.8918 0.1275 -0.4340
vn -0.1134 -0.7255 -0.6788
vn 0.4969 0.8111 -0.3085
vt 0.000000 0.000000
vt 1.000000 0.000000
vt 1.000000 1.000000
vt 0.000000 1.000000
s 1
g Plane.001_Material.001
usemtl Material.001
f 1/1/1 2/2/1 4/3/1 3/4/1
f 5/1/2 7/4/2 8/3/2 6/2/2
f 9/1/3 10/2/3 12/3/3 11/4/3
f 13/1/4 14/2/4 16/3/4 15/4/4
f 17/1/5 19/4/5 20/3/5 18/2/5
f 21/1/6 23/4/6 24/3/6 22/2/6
f 25/1/7 27/4/7 28/3/7 26/2/7
f 29/1/8 30/2/8 32/3/8 31/4/8
f 33/1/9 34/2/9 36/3/9 35/4/9
