# Blender 4.2.3 LTS
# www.blender.org
mtllib grass.mtl
o Plane
v 0.000000 -0.180929 -0.000677
v 0.000000 0.736097 -0.003194
v -0.036602 0.578412 -0.008644
v -0.036602 0.277584 -0.008644
v -0.036602 -0.023244 -0.000686
v 0.036602 -0.023244 -0.000686
v 0.036602 0.277584 -0.008644
v 0.036602 0.578412 -0.008644
v -0.036602 0.427998 -0.011325
v 0.036602 0.427998 -0.011325
v -0.036602 0.127170 -0.003599
v 0.036602 0.127170 -0.003599
vn -0.0000 -0.0345 0.9994
vn -0.0000 0.0001 1.0000
vn -0.0000 0.0335 0.9994
vn -0.0000 -0.0178 0.9998
vn -0.0000 0.0178 0.9998
vn -0.0000 0.0194 0.9998
vt 0.000000 0.750000
vt 1.000000 0.750000
vt 0.000000 1.000000
vt 1.000000 0.000000
vt 1.000000 0.250000
vt 0.000000 0.250000
vt 0.000000 0.375000
vt 1.000000 0.375000
vt 1.000000 0.500000
vt 0.000000 0.500000
vt 0.000000 0.625000
vt 1.000000 0.625000
s 0
f 3/1/1 8/2/1 2/3/1
f 1/4/2 6/5/2 5/6/2
f 11/7/3 12/8/3 7/9/3 4/10/3
f 9/11/4 10/12/4 8/2/4 3/1/4
f 4/10/5 7/9/5 10/12/5 9/11/5
f 5/6/6 6/5/6 12/8/6 11/7/6
o Plane.001
v 0.105834 -0.206784 -0.183884
v 0.106471 0.613150 -0.186446
v 0.065435 0.467099 -0.196470
v 0.056346 0.189192 -0.187981
v 0.063422 -0.070850 -0.188373
v 0.137958 -0.070850 -0.169799
v 0.130882 0.189192 -0.169407
v 0.139971 0.467099 -0.177897
v 0.060009 0.326611 -0.193497
v 0.134545 0.326611 -0.174923
v 0.058052 0.057637 -0.185632
v 0.132588 0.057637 -0.167059
vn -0.2418 0.0013 0.9703
vn -0.2416 -0.0434 0.9694
vn -0.2418 0.0142 0.9702
vn -0.2417 0.0299 0.9699
vn -0.2415 0.0453 0.9693
vn -0.2417 -0.0308 0.9699
vt 0.000000 0.750000
vt 1.000000 0.750000
vt 0.000000 1.000000
vt 1.000000 0.000000
vt 1.000000 0.250000
vt 0.000000 0.250000
vt 0.000000 0.375000
vt 1.000000 0.375000
vt 1.000000 0.500000
vt 0.000000 0.500000
vt 0.000000 0.625000
vt 1.000000 0.625000
s 0
f 15/13/7 20/14/7 14/15/7
f 13/16/8 18/17/8 17/18/8
f 23/19/9 24/20/9 19/21/9 16/22/9
f 21/23/10 22/24/10 20/14/10 15/13/10
f 16/22/11 19/21/11 22/24/11 21/23/11
f 17/18/12 18/17/12 24/20/12 23/19/12
o Plane.002
v -0.039123 -0.240786 -0.422938
v -0.036247 0.676240 -0.422664
v -0.026043 0.518555 -0.463900
v -0.026043 0.217727 -0.463900
v -0.035137 -0.083101 -0.464764
v -0.043089 -0.083101 -0.381109
v -0.033994 0.217727 -0.380245
v -0.033995 0.518555 -0.380245
v -0.022979 0.368141 -0.463609
v -0.030931 0.368141 -0.379954
v -0.031809 0.067313 -0.464448
v -0.039760 0.067313 -0.380793
vn -0.9947 -0.0396 -0.0946
vn -0.9955 0.0001 -0.0946
vn -0.9948 0.0385 -0.0946
vn -0.9953 -0.0205 -0.0946
vn -0.9953 0.0205 -0.0946
vn -0.9953 0.0222 -0.0946
vt 0.000000 0.750000
vt 1.000000 0.750000
vt 0.000000 1.000000
vt 1.000000 0.000000
vt 1.000000 0.250000
vt 0.000000 0.250000
vt 0.000000 0.375000
vt 1.000000 0.375000
vt 1.000000 0.500000
vt 0.000000 0.500000
vt 0.000000 0.625000
vt 1.000000 0.625000
s 0
f 27/25/13 32/26/13 26/27/13
f 25/28/14 30/29/14 29/30/14
f 35/31/15 36/32/15 31/33/15 28/34/15
f 33/35/16 34/36/16 32/26/16 27/25/16
f 28/34/17 31/33/17 34/36/17 33/35/17
f 29/30/18 30/29/18 36/32/18 35/31/18
o Plane.003
v 0.133921 -0.206784 -0.300179
v 0.136411 0.613150 -0.299302
v 0.150273 0.467099 -0.339206
v 0.142682 0.189192 -0.349057
v 0.142403 -0.070850 -0.341976
v 0.116860 -0.070850 -0.269532
v 0.117139 0.189192 -0.276613
v 0.124730 0.467099 -0.266761
v 0.147826 0.326611 -0.344888
v 0.122284 0.326611 -0.272444
v 0.140183 0.057637 -0.347581
v 0.114640 0.057637 -0.275137
vn -0.9431 0.0013 -0.3325
vn -0.9422 -0.0434 -0.3322
vn -0.9430 0.0142 -0.3325
vn -0.9427 0.0299 -0.3324
vn -0.9421 0.0453 -0.3322
vn -0.9426 -0.0308 -0.3324
vt 0.000000 0.750000
vt 1.000000 0.750000
vt 0.000000 1.000000
vt 1.000000 0.000000
vt 1.000000 0.250000
vt 0.000000 0.250000
vt 0.000000 0.375000
vt 1.000000 0.375000
vt 1.000000 0.500000
vt 0.000000 0.500000
vt 0.000000 0.625000
vt 1.000000 0.625000
s 0
f 39/37/19 44/38/19 38/39/19
f 37/40/20 42/41/20 41/42/20
f 47/43/21 48/44/21 43/45/21 40/46/21
f 45/47/22 46/48/22 44/38/22 39/37/22
f 40/46/23 43/45/23 46/48/23 45/47/23
f 41/42/24 42/41/24 48/44/24 47/43/24
o Plane.004
v -0.141199 -0.206784 -0.040789
v -0.143511 0.613150 -0.042063
v -0.163730 0.467099 -0.004973
v -0.157857 0.189192 0.005990
v -0.156420 -0.070850 -0.000949
v -0.119342 -0.070850 -0.068223
v -0.120778 0.189192 -0.061284
v -0.126651 0.467099 -0.072247
v -0.162248 0.326611 0.001034
v -0.125170 0.326611 -0.066240
v -0.155150 0.057637 0.004944
v -0.118071 0.057637 -0.062329
vn 0.8758 0.0013 0.4827
vn 0.8750 -0.0434 0.4822
vn 0.8757 0.0142 0.4827
vn 0.8754 0.0299 0.4825
vn 0.8749 0.0453 0.4822
vn 0.8754 -0.0308 0.4825
vt 0.000000 0.750000
vt 1.000000 0.750000
vt 0.000000 1.000000
vt 1.000000 0.000000
vt 1.000000 0.250000
vt 0.000000 0.250000
vt 0.000000 0.375000
vt 1.000000 0.375000
vt 1.000000 0.500000
vt 0.000000 0.500000
vt 0.000000 0.625000
vt 1.000000 0.625000
s 0
f 51/49/25 56/50/25 50/51/25
f 49/52/26 54/53/26 53/54/26
f 59/55/27 60/56/27 55/57/27 52/58/27
f 57/59/28 58/60/28 56/50/28 51/49/28
f 52/58/29 55/57/29 58/60/29 57/59/29
f 53/54/30 54/53/30 60/56/30 59/55/30
o Plane.005
v -0.107784 -0.207557 -0.255709
v -0.106056 0.612862 -0.255847
v -0.085403 0.462488 -0.286704
v -0.079966 0.176287 -0.279198
v -0.092126 -0.076192 -0.287945
v -0.117668 -0.076192 -0.215501
v -0.105509 0.176287 -0.206754
v -0.110946 0.462488 -0.214260
v -0.079071 0.316411 -0.280691
v -0.104613 0.316411 -0.208247
v -0.086394 0.047232 -0.282956
v -0.111937 0.047232 -0.210512
vn -0.9413 -0.0612 -0.3319
vn -0.9426 0.0308 -0.3324
vn -0.9416 0.0566 -0.3320
vn -0.9417 -0.0545 -0.3320
vn -0.9431 0.0025 -0.3325
vn -0.9416 0.0571 -0.3320
vt 0.000000 0.750000
vt 1.000000 0.750000
vt 0.000000 1.000000
vt 1.000000 0.000000
vt 1.000000 0.250000
vt 0.000000 0.250000
vt 0.000000 0.375000
vt 1.000000 0.375000
vt 1.000000 0.500000
vt 0.000000 0.500000
vt 0.000000 0.625000
vt 1.000000 0.625000
s 0
f 63/61/31 68/62/31 62/63/31
f 61/64/32 66/65/32 65/66/32
f 71/67/33 72/68/33 67/69/33 64/70/33
f 69/71/34 70/72/34 68/62/34 63/61/34
f 64/70/35 67/69/35 70/72/35 69/71/35
f 65/66/36 66/65/36 72/68/36 71/67/36
o Plane.006
v 0.085818 -0.180929 0.200394
v 0.087738 0.671973 0.198235
v 0.060492 0.555984 0.165644
v 0.060492 0.293031 0.165644
v 0.054422 -0.023244 0.172472
v 0.117228 -0.023244 0.228300
v 0.123298 0.293031 0.221472
v 0.123298 0.555984 0.221472
v 0.062536 0.438209 0.163344
v 0.125342 0.438209 0.219172
v 0.056644 0.127608 0.169973
v 0.119450 0.127608 0.225801
vn -0.6634 -0.0539 0.7463
vn -0.6644 0.0001 0.7474
vn -0.6640 0.0350 0.7469
vn -0.6641 -0.0261 0.7471
vn -0.6642 0.0212 0.7472
vn -0.6642 0.0222 0.7472
vt 0.000000 0.750000
vt 1.000000 0.750000
vt 0.000000 1.000000
vt 1.000000 0.000000
vt 1.000000 0.250000
vt 0.000000 0.250000
vt 0.000000 0.375000
vt 1.000000 0.375000
vt 1.000000 0.500000
vt 0.000000 0.500000
vt 0.000000 0.625000
vt 1.000000 0.625000
s 0
f 75/73/37 80/74/37 74/75/37
f 73/76/38 78/77/38 77/78/38
f 83/79/39 84/80/39 79/81/39 76/82/39
f 81/83/40 82/84/40 80/74/40 75/73/40
f 76/82/41 79/81/41 82/84/41 81/83/41
f 77/78/42 78/77/42 84/80/42 83/79/42
o Plane.007
v 0.287086 -0.143726 0.133271
v 0.289264 0.548028 0.131780
v 0.265253 0.424809 0.097024
v 0.252820 0.190347 0.097331
v 0.258369 -0.029043 0.101739
v 0.301738 -0.029043 0.165140
v 0.296189 0.190347 0.160732
v 0.308622 0.424809 0.160425
v 0.259222 0.306284 0.095642
v 0.302592 0.306284 0.159043
v 0.252535 0.079358 0.100219
v 0.295904 0.079358 0.163620
vn -0.8254 0.0016 0.5646
vn -0.8243 -0.0514 0.5638
vn -0.8253 0.0168 0.5645
vn -0.8249 0.0354 0.5642
vn -0.8242 0.0537 0.5638
vn -0.8248 -0.0365 0.5642
vt 0.000000 0.750000
vt 1.000000 0.750000
vt 0.000000 1.000000
vt 1.000000 0.000000
vt 1.000000 0.250000
vt 0.000000 0.250000
vt 0.000000 0.375000
vt 1.000000 0.375000
vt 1.000000 0.500000
vt 0.000000 0.500000
vt 0.000000 0.625000
vt 1.000000 0.625000
s 0
f 87/85/43 92/86/43 86/87/43
f 85/88/44 90/89/44 89/90/44
f 95/91/45 96/92/45 91/93/45 88/94/45
f 93/95/46 94/96/46 92/86/46 87/85/46
f 88/94/47 91/93/47 94/96/47 93/95/47
f 89/90/48 90/89/48 96/92/48 95/91/48
o Plane.008
v 0.175145 -0.146762 -0.062332
v 0.186226 0.512498 -0.075847
v 0.225526 0.389704 -0.090239
v 0.215881 0.161757 -0.067921
v 0.208265 -0.040610 -0.076023
v 0.141044 -0.040610 -0.038848
v 0.148660 0.161757 -0.030746
v 0.158305 0.389704 -0.053063
v 0.223214 0.272826 -0.076959
v 0.155994 0.272826 -0.039784
v 0.209673 0.058959 -0.069144
v 0.142452 0.058959 -0.031969
vn -0.4833 -0.0523 -0.8739
vn -0.4836 0.0381 -0.8745
vn -0.4836 0.0396 -0.8744
vn -0.4820 -0.0895 -0.8716
vn -0.4836 -0.0392 -0.8744
vn -0.4829 0.0671 -0.8731
vt 0.000000 0.750000
vt 1.000000 0.750000
vt 0.000000 1.000000
vt 1.000000 0.000000
vt 1.000000 0.250000
vt 0.000000 0.250000
vt 0.000000 0.375000
vt 1.000000 0.375000
vt 1.000000 0.500000
vt 0.000000 0.500000
vt 0.000000 0.625000
vt 1.000000 0.625000
s 0
f 99/97/49 104/98/49 98/99/49
f 97/100/50 102/101/50 101/102/50
f 107/103/51 108/104/51 103/105/51 100/106/51
f 105/107/52 106/108/52 104/98/52 99/97/52
f 100/106/53 103/105/53 106/108/53 105/107/53
f 101/102/54 102/101/54 108/104/54 107/103/54
o Plane.009
v -0.098746 -0.206784 0.113521
v -0.098108 0.613150 0.110959
v -0.139145 0.467099 0.100935
v -0.148233 0.189192 0.109425
v -0.141158 -0.070850 0.109033
v -0.066622 -0.070850 0.127606
v -0.073697 0.189192 0.127998
v -0.064609 0.467099 0.119508
v -0.144570 0.326611 0.103909
v -0.070034 0.326611 0.122482
v -0.146528 0.057637 0.111773
v -0.071992 0.057637 0.130346
vn -0.2418 0.0013 0.9703
vn -0.2416 -0.0434 0.9694
vn -0.2418 0.0142 0.9702
vn -0.2417 0.0299 0.9699
vn -0.2415 0.0453 0.9693
vn -0.2417 -0.0308 0.9699
vt 0.000000 0.750000
vt 1.000000 0.750000
vt 0.000000 1.000000
vt 1.000000 0.000000
vt 1.000000 0.250000
vt 0.000000 0.250000
vt 0.000000 0.375000
vt 1.000000 0.375000
vt 1.000000 0.500000
vt 0.000000 0.500000
vt 0.000000 0.625000
vt 1.000000 0.625000
s 0
f 111/109/55 116/110/55 110/111/55
f 109/112/56 114/113/56 113/114/56
f 119/115/57 120/116/57 115/117/57 112/118/57
f 117/119/58 118/120/58 116/110/58 111/109/58
f 112/118/59 115/117/59 118/120/59 117/119/59
f 113/114/60 114/113/60 120/116/60 119/115/60
o Plane.010
v -0.029434 -0.146762 0.235073
v -0.018354 0.512498 0.221558
v 0.020946 0.389704 0.207167
v 0.011301 0.161757 0.229484
v 0.003685 -0.040610 0.221382
v -0.063535 -0.040610 0.258557
v -0.055919 0.161757 0.266659
v -0.046274 0.389704 0.244342
v 0.018635 0.272826 0.220446
v -0.048586 0.272826 0.257621
v 0.005093 0.058959 0.228261
v -0.062127 0.058959 0.265436
vn -0.4833 -0.0523 -0.8739
vn -0.4836 0.0381 -0.8745
vn -0.4836 0.0396 -0.8744
vn -0.4820 -0.0895 -0.8716
vn -0.4836 -0.0392 -0.8744
vn -0.4829 0.0671 -0.8731
vt 0.000000 0.750000
vt 1.000000 0.750000
vt 0.000000 1.000000
vt 1.000000 0.000000
vt 1.000000 0.250000
vt 0.000000 0.250000
vt 0.000000 0.375000
vt 1.000000 0.375000
vt 1.000000 0.500000
vt 0.000000 0.500000
vt 0.000000 0.625000
vt 1.000000 0.625000
s 0
f 123/121/61 128/122/61 122/123/61
f 121/124/62 126/125/62 125/126/62
f 131/127/63 132/128/63 127/129/63 124/130/63
f 129/131/64 130/132/64 128/122/64 123/121/64
f 124/130/65 127/129/65 130/132/65 129/131/65
f 125/126/66 126/125/66 132/128/66 131/127/66
o Plane.011
v -0.218209 -0.237878 -0.276116
v -0.216359 0.582056 -0.278000
v -0.246630 0.436005 -0.307465
v -0.258770 0.158098 -0.304762
v -0.252474 -0.101944 -0.301509
v -0.197678 -0.101944 -0.247677
v -0.203973 0.158098 -0.250930
v -0.191834 0.436005 -0.253632
v -0.252814 0.295518 -0.307656
v -0.198018 0.295518 -0.253823
v -0.258492 0.026543 -0.301873
v -0.203696 0.026543 -0.248041
vn -0.7008 0.0013 0.7134
vn -0.7001 -0.0434 0.7127
vn -0.7007 0.0142 0.7133
vn -0.7005 0.0299 0.7130
vn -0.7001 0.0453 0.7126
vn -0.7005 -0.0308 0.7130
vt 0.000000 0.750000
vt 1.000000 0.750000
vt 0.000000 1.000000
vt 1.000000 0.000000
vt 1.000000 0.250000
vt 0.000000 0.250000
vt 0.000000 0.375000
vt 1.000000 0.375000
vt 1.000000 0.500000
vt 0.000000 0.500000
vt 0.000000 0.625000
vt 1.000000 0.625000
s 0
f 135/133/67 140/134/67 134/135/67
f 133/136/68 138/137/68 137/138/68
f 143/139/69 144/140/69 139/141/69 136/142/69
f 141/143/70 142/144/70 140/134/70 135/133/70
f 136/142/71 139/141/71 142/144/71 141/143/71
f 137/138/72 138/137/72 144/140/72 143/139/72
o Plane.012
v -0.220179 -0.177856 -0.136205
v -0.203772 0.481405 -0.142227
v -0.162606 0.358610 -0.134681
v -0.182243 0.130663 -0.120347
v -0.184693 -0.071704 -0.131193
v -0.261480 -0.071704 -0.133278
v -0.259030 0.130663 -0.122432
v -0.239393 0.358610 -0.136766
v -0.171337 0.241732 -0.124412
v -0.248124 0.241732 -0.126497
v -0.186972 0.027865 -0.124551
v -0.263758 0.027865 -0.126636
vn 0.0271 -0.0523 -0.9983
vn 0.0271 0.0381 -0.9989
vn 0.0271 0.0396 -0.9988
vn 0.0270 -0.0895 -0.9956
vn 0.0271 -0.0392 -0.9989
vn 0.0271 0.0671 -0.9974
vt 0.000000 0.750000
vt 1.000000 0.750000
vt 0.000000 1.000000
vt 1.000000 0.000000
vt 1.000000 0.250000
vt 0.000000 0.250000
vt 0.000000 0.375000
vt 1.000000 0.375000
vt 1.000000 0.500000
vt 0.000000 0.500000
vt 0.000000 0.625000
vt 1.000000 0.625000
s 0
f 147/145/73 152/146/73 146/147/73
f 145/148/74 150/149/74 149/150/74
f 155/151/75 156/152/75 151/153/75 148/154/75
f 153/155/76 154/156/76 152/146/76 147/145/76
f 148/154/77 151/153/77 154/156/77 153/155/77
f 149/150/78 150/149/78 156/152/78 155/151/78
